<svg width="1000" height="1512" viewBox="0 0 1000 1512" fill="none" xmlns="http://www.w3.org/2000/svg">
<g clip-path="url(#clip0_32_2)">
<rect x="3" y="3" width="994" height="1506" rx="32" fill="#F1F1F1" stroke="black" stroke-width="6"/>
<rect x="61.75" y="67.75" width="876.5" height="1376.5" rx="33.25" fill="#F1F1F1" stroke="black" stroke-width="3.5"/>
<rect x="69.75" y="75.75" width="860.5" height="1360.5" rx="33.25" fill="#8EBBDE" stroke="black" stroke-width="3.5"/>
<path d="M103 75.75H897C915.363 75.75 930.25 90.6365 930.25 109V912.25H69.75V109L69.7607 108.142C70.216 90.1749 84.9235 75.75 103 75.75Z" fill="#181818" stroke="black" stroke-width="3.5"/>
<rect x="188" y="158" width="624" height="432" fill="#F1F1F1"/>
<rect x="103" y="693" width="794" height="186" fill="#F1F1F1"/>
<line x1="885.75" y1="693" x2="885.75" y2="879" stroke="#4D4D4D" stroke-width="3.5"/>
<line x1="872.75" y1="693" x2="872.75" y2="879" stroke="#4D4D4D" stroke-width="3.5"/>
<line x1="859.75" y1="693" x2="859.75" y2="879" stroke="#4D4D4D" stroke-width="3.5"/>
<line x1="846.75" y1="713" x2="846.75" y2="879" stroke="#4D4D4D" stroke-width="3.5"/>
<line x1="833.75" y1="763" x2="833.75" y2="879" stroke="#4D4D4D" stroke-width="3.5"/>
<line x1="820.75" y1="796" x2="820.75" y2="879" stroke="#4D4D4D" stroke-width="3.5"/>
<line x1="807.75" y1="840" x2="807.75" y2="879" stroke="#4D4D4D" stroke-width="3.5"/>
<line x1="794.75" y1="856" x2="794.75" y2="879" stroke="#4D4D4D" stroke-width="3.5"/>
<rect x="106" y="956" width="788" height="124" fill="#F1F1F1" stroke="#162029" stroke-width="4"/>
<path d="M139.328 1050.36V1042.44H167.996V992.947H139.328V985.02H204.672V992.947H176.004V1042.44H204.672V1050.36H139.328ZM225.012 1051.32L219.887 1045.88L282.668 983.738L288.113 988.863L225.012 1051.32ZM220.768 1001.12C220.768 996.684 222.369 992.867 225.572 989.664C228.829 986.408 232.726 984.779 237.264 984.779C241.695 984.779 245.565 986.408 248.875 989.664C252.185 992.867 253.84 996.684 253.84 1001.12C253.84 1005.65 252.185 1009.5 248.875 1012.65C245.565 1015.8 241.695 1017.37 237.264 1017.37C232.726 1017.37 228.829 1015.8 225.572 1012.65C222.369 1009.5 220.768 1005.65 220.768 1001.12ZM303.168 1050.36V1042.2H331.996V984.859H340.324V1042.2H368.832V1050.36H303.168ZM385.488 1031.62L399.422 1017.45L385.488 1002.48L390.293 997.352L405.828 1013.53L430.732 1013.69L444.746 997.352L450.512 1002.48L436.898 1017.45L450.512 1031.95L444.746 1037.71L430.332 1021.7L405.828 1021.54L390.293 1037.71L385.488 1031.62ZM467.328 1050.36V1042.12H524.744V985.02H532.672V1050.36H467.328ZM565.504 1017.61C565.504 1013.18 567.105 1009.36 570.309 1006.16C573.565 1002.9 577.462 1001.28 582 1001.28C586.431 1001.28 590.301 1002.9 593.611 1006.16C596.921 1009.36 598.576 1013.18 598.576 1017.61C598.576 1022.15 596.921 1025.99 593.611 1029.14C590.301 1032.29 586.431 1033.87 582 1033.87C577.462 1033.87 573.565 1032.29 570.309 1029.14C567.105 1025.99 565.504 1022.15 565.504 1017.61ZM659.516 1054.37V1021.7H626.844L667.844 979.414V1013.37H701.156L659.516 1054.37ZM683.219 1021.7H667.844V1037.07L683.219 1021.7ZM659.516 1013.37V997.992L644.141 1013.37H659.516ZM717.012 1051.32L711.887 1045.88L774.668 983.738L780.113 988.863L717.012 1051.32ZM712.768 1001.12C712.768 996.684 714.369 992.867 717.572 989.664C720.829 986.408 724.726 984.779 729.264 984.779C733.695 984.779 737.565 986.408 740.875 989.664C744.185 992.867 745.84 996.684 745.84 1001.12C745.84 1005.65 744.185 1009.5 740.875 1012.65C737.565 1015.8 733.695 1017.37 729.264 1017.37C724.726 1017.37 720.829 1015.8 717.572 1012.65C714.369 1009.5 712.768 1005.65 712.768 1001.12ZM793.727 984.859H816.148C823.409 987.529 828.32 990.945 830.883 995.109L862.273 1047L855.867 1051.8L835.688 1018.25C835.26 1033.47 828.747 1044.12 816.148 1050.2H793.727V1042.12L813.906 1042.2C822.555 1038.46 827.039 1030.34 827.359 1017.85C827.039 1004.99 822.555 996.658 813.906 992.867H793.727V984.859Z" fill="black"/>
<path d="M107.25 1151.31V1148.22H118.438V1128.91H107.25V1125.81H132.75V1128.91H121.562V1148.22H132.75V1151.31H107.25ZM139.567 1151.69L137.567 1149.56L162.067 1125.31L164.192 1127.31L139.567 1151.69ZM137.911 1132.09C137.911 1130.36 138.536 1128.88 139.786 1127.62C141.057 1126.35 142.578 1125.72 144.349 1125.72C146.078 1125.72 147.588 1126.35 148.88 1127.62C150.172 1128.88 150.817 1130.36 150.817 1132.09C150.817 1133.86 150.172 1135.36 148.88 1136.59C147.588 1137.82 146.078 1138.44 144.349 1138.44C142.578 1138.44 141.057 1137.82 139.786 1136.59C138.536 1135.36 137.911 1133.86 137.911 1132.09ZM168.947 1151.31V1148.12H180.197V1125.75H183.447V1148.12H194.572V1151.31H168.947ZM199.952 1144L205.39 1138.47L199.952 1132.62L201.827 1130.62L207.89 1136.94L217.609 1137L223.077 1130.62L225.327 1132.62L220.015 1138.47L225.327 1144.12L223.077 1146.38L217.452 1140.12L207.89 1140.06L201.827 1146.38L199.952 1144ZM230.77 1151.31V1148.09H253.176V1125.81H256.27V1151.31H230.77ZM267.962 1138.53C267.962 1136.8 268.587 1135.31 269.837 1134.06C271.108 1132.79 272.629 1132.16 274.4 1132.16C276.129 1132.16 277.64 1132.79 278.931 1134.06C280.223 1135.31 280.869 1136.8 280.869 1138.53C280.869 1140.3 280.223 1141.8 278.931 1143.03C277.64 1144.26 276.129 1144.88 274.4 1144.88C272.629 1144.88 271.108 1144.26 269.837 1143.03C268.587 1141.8 267.962 1140.3 267.962 1138.53ZM303.53 1152.88V1140.12H290.78L306.78 1123.62V1136.88H319.78L303.53 1152.88ZM312.78 1140.12H306.78V1146.12L312.78 1140.12ZM303.53 1136.88V1130.88L297.53 1136.88H303.53ZM324.848 1151.69L322.848 1149.56L347.348 1125.31L349.473 1127.31L324.848 1151.69ZM323.191 1132.09C323.191 1130.36 323.816 1128.88 325.066 1127.62C326.337 1126.35 327.858 1125.72 329.629 1125.72C331.358 1125.72 332.868 1126.35 334.16 1127.62C335.452 1128.88 336.098 1130.36 336.098 1132.09C336.098 1133.86 335.452 1135.36 334.16 1136.59C332.868 1137.82 331.358 1138.44 329.629 1138.44C327.858 1138.44 326.337 1137.82 325.066 1136.59C323.816 1135.36 323.191 1133.86 323.191 1132.09ZM353.665 1125.75H362.415C365.248 1126.79 367.165 1128.12 368.165 1129.75L380.415 1150L377.915 1151.88L370.04 1138.78C369.873 1144.72 367.332 1148.88 362.415 1151.25H353.665V1148.09L361.54 1148.12C364.915 1146.67 366.665 1143.5 366.79 1138.62C366.665 1133.6 364.915 1130.35 361.54 1128.88H353.665V1125.75ZM409.264 1126.12L411.826 1127.41L400.545 1148.12H410.295V1151.25H384.67V1148.12H394.295L384.045 1127.41L386.514 1126.12L397.545 1147.75L409.264 1126.12ZM416.112 1144L421.55 1138.47L416.112 1132.62L417.987 1130.62L424.05 1136.94L433.769 1137L439.237 1130.62L441.487 1132.62L436.175 1138.47L441.487 1144.12L439.237 1146.38L433.612 1140.12L424.05 1140.06L417.987 1146.38L416.112 1144ZM471.836 1147.38C471.836 1146.48 472.149 1145.71 472.774 1145.06C473.399 1144.4 474.18 1144.06 475.117 1144.06C476.013 1144.06 476.784 1144.4 477.43 1145.06C478.097 1145.71 478.43 1146.48 478.43 1147.38C478.43 1148.31 478.097 1149.1 477.43 1149.75C476.784 1150.4 476.013 1150.72 475.117 1150.72C474.18 1150.72 473.399 1150.4 472.774 1149.75C472.149 1149.1 471.836 1148.31 471.836 1147.38ZM448.961 1138.5C448.961 1135.83 449.847 1133.62 451.617 1131.88C453.409 1130.12 455.263 1129.2 457.18 1129.09V1125.75H460.18V1129.16C462.159 1129.22 464.013 1130.12 465.742 1131.88C467.492 1133.62 468.388 1135.83 468.43 1138.5C468.43 1141.17 467.524 1143.42 465.711 1145.25C463.899 1147.08 462.055 1147.98 460.18 1147.94V1151.25H457.18V1147.94C455.263 1147.98 453.409 1147.08 451.617 1145.25C449.847 1143.42 448.961 1141.17 448.961 1138.5ZM460.18 1144.75C461.555 1144.83 462.763 1144.32 463.805 1143.22C464.847 1142.09 465.388 1140.48 465.43 1138.38C465.388 1136.58 464.763 1135.08 463.555 1133.88C462.367 1132.67 461.242 1132.12 460.18 1132.25V1144.75ZM451.805 1138.5C451.722 1140.48 452.211 1142.04 453.274 1143.19C454.336 1144.31 455.638 1144.83 457.18 1144.75V1132.25C455.867 1132.15 454.638 1132.67 453.492 1133.81C452.367 1134.96 451.805 1136.52 451.805 1138.5ZM485.747 1151.19V1148.09H511.372V1151.19H485.747ZM487.341 1128.78V1125.81H509.654V1128.78H487.341ZM492.154 1138.53C492.154 1136.8 492.779 1135.31 494.029 1134.06C495.3 1132.79 496.82 1132.16 498.591 1132.16C500.32 1132.16 501.831 1132.79 503.122 1134.06C504.414 1135.31 505.06 1136.8 505.06 1138.53C505.06 1140.3 504.414 1141.8 503.122 1143.03C501.831 1144.26 500.32 1144.88 498.591 1144.88C496.82 1144.88 495.3 1144.26 494.029 1143.03C492.779 1141.8 492.154 1140.3 492.154 1138.53ZM524.596 1138.5V1125.56H527.69V1138.5H524.596ZM531.003 1138.5V1125.56H534.221V1138.5H531.003ZM540.659 1125.56V1145.53C539.075 1150.43 535.305 1152.96 529.346 1153.12C524.055 1152.96 520.357 1150.43 518.253 1145.53V1125.56H521.378V1143.78C522.419 1147.74 525.086 1149.72 529.378 1149.72C533.794 1149.72 536.471 1147.74 537.409 1143.78V1125.56H540.659ZM553.883 1138.53C553.883 1136.8 554.508 1135.31 555.758 1134.06C557.028 1132.79 558.549 1132.16 560.32 1132.16C562.049 1132.16 563.56 1132.79 564.851 1134.06C566.143 1135.31 566.789 1136.8 566.789 1138.53C566.789 1140.3 566.143 1141.8 564.851 1143.03C563.56 1144.26 562.049 1144.88 560.32 1144.88C558.549 1144.88 557.028 1144.26 555.758 1143.03C554.508 1141.8 553.883 1140.3 553.883 1138.53ZM578.231 1128.91V1125.81H604.2V1128.91H578.231ZM604.2 1130.62L591.2 1153.5L578.231 1130.62H604.2ZM582.731 1133.5L591.2 1147.78L599.669 1133.56L582.731 1133.5ZM118.438 1228.22V1220.09H110.219C109.948 1221.64 110.792 1223.41 112.75 1225.41C114.729 1227.39 116.625 1228.32 118.438 1228.22ZM129.656 1220.09H121.438V1228.09C123.167 1228.11 124.917 1227.26 126.688 1225.53C128.458 1223.8 129.448 1221.99 129.656 1220.09ZM118.438 1216.97V1208.84C116.542 1208.8 114.677 1209.73 112.844 1211.62C111.031 1213.5 110.156 1215.28 110.219 1216.97H118.438ZM129.656 1216.97C129.719 1214.97 128.781 1213.08 126.844 1211.31C124.927 1209.52 123.167 1208.66 121.562 1208.72V1216.97H129.656ZM107.062 1218.5C107.062 1214.98 108.312 1211.96 110.812 1209.44C113.312 1206.9 116.375 1205.62 120 1205.62C123.5 1205.62 126.531 1206.9 129.094 1209.44C131.656 1211.96 132.865 1214.94 132.719 1218.38C132.594 1221.81 131.406 1224.74 129.156 1227.16C126.927 1229.55 123.875 1230.96 120 1231.38C116.354 1231.08 113.281 1229.75 110.781 1227.38C108.302 1225 107.062 1222.04 107.062 1218.5ZM139.567 1231.69L137.567 1229.56L162.067 1205.31L164.192 1207.31L139.567 1231.69ZM137.911 1212.09C137.911 1210.36 138.536 1208.88 139.786 1207.62C141.057 1206.35 142.578 1205.72 144.349 1205.72C146.078 1205.72 147.588 1206.35 148.88 1207.62C150.172 1208.88 150.817 1210.36 150.817 1212.09C150.817 1213.86 150.172 1215.36 148.88 1216.59C147.588 1217.82 146.078 1218.44 144.349 1218.44C142.578 1218.44 141.057 1217.82 139.786 1216.59C138.536 1215.36 137.911 1213.86 137.911 1212.09ZM193.104 1206.12L195.666 1207.41L184.385 1228.12H194.135V1231.25H168.51V1228.12H178.135L167.885 1207.41L170.354 1206.12L181.385 1227.75L193.104 1206.12ZM199.952 1224L205.39 1218.47L199.952 1212.62L201.827 1210.62L207.89 1216.94L217.609 1217L223.077 1210.62L225.327 1212.62L220.015 1218.47L225.327 1224.12L223.077 1226.38L217.452 1220.12L207.89 1220.06L201.827 1226.38L199.952 1224ZM255.676 1227.38C255.676 1226.48 255.989 1225.71 256.614 1225.06C257.239 1224.4 258.02 1224.06 258.957 1224.06C259.853 1224.06 260.624 1224.4 261.27 1225.06C261.937 1225.71 262.27 1226.48 262.27 1227.38C262.27 1228.31 261.937 1229.1 261.27 1229.75C260.624 1230.4 259.853 1230.72 258.957 1230.72C258.02 1230.72 257.239 1230.4 256.614 1229.75C255.989 1229.1 255.676 1228.31 255.676 1227.38ZM232.801 1218.5C232.801 1215.83 233.687 1213.62 235.457 1211.88C237.249 1210.12 239.103 1209.2 241.02 1209.09V1205.75H244.02V1209.16C245.999 1209.22 247.853 1210.12 249.582 1211.88C251.332 1213.62 252.228 1215.83 252.27 1218.5C252.27 1221.17 251.364 1223.42 249.551 1225.25C247.739 1227.08 245.895 1227.98 244.02 1227.94V1231.25H241.02V1227.94C239.103 1227.98 237.249 1227.08 235.457 1225.25C233.687 1223.42 232.801 1221.17 232.801 1218.5ZM244.02 1224.75C245.395 1224.83 246.603 1224.32 247.645 1223.22C248.687 1222.09 249.228 1220.48 249.27 1218.38C249.228 1216.58 248.603 1215.08 247.395 1213.88C246.207 1212.67 245.082 1212.12 244.02 1212.25V1224.75ZM235.645 1218.5C235.562 1220.48 236.051 1222.04 237.114 1223.19C238.176 1224.31 239.478 1224.83 241.02 1224.75V1212.25C239.707 1212.15 238.478 1212.67 237.332 1213.81C236.207 1214.96 235.645 1216.52 235.645 1218.5ZM269.65 1231.31V1228.22H280.837V1208.91H269.65V1205.81H295.15V1208.91H283.962V1228.22H295.15V1231.31H269.65ZM326.598 1228.22V1220.09H318.379C318.108 1221.64 318.952 1223.41 320.91 1225.41C322.889 1227.39 324.785 1228.32 326.598 1228.22ZM337.816 1220.09H329.598V1228.09C331.327 1228.11 333.077 1227.26 334.848 1225.53C336.618 1223.8 337.608 1221.99 337.816 1220.09ZM326.598 1216.97V1208.84C324.702 1208.8 322.837 1209.73 321.004 1211.62C319.191 1213.5 318.316 1215.28 318.379 1216.97H326.598ZM337.816 1216.97C337.879 1214.97 336.941 1213.08 335.004 1211.31C333.087 1209.52 331.327 1208.66 329.723 1208.72V1216.97H337.816ZM315.223 1218.5C315.223 1214.98 316.473 1211.96 318.973 1209.44C321.473 1206.9 324.535 1205.62 328.16 1205.62C331.66 1205.62 334.691 1206.9 337.254 1209.44C339.816 1211.96 341.025 1214.94 340.879 1218.38C340.754 1221.81 339.566 1224.74 337.316 1227.16C335.087 1229.55 332.035 1230.96 328.16 1231.38C324.514 1231.08 321.441 1229.75 318.941 1227.38C316.462 1225 315.223 1222.04 315.223 1218.5ZM347.727 1231.69L345.727 1229.56L370.227 1205.31L372.352 1207.31L347.727 1231.69ZM346.071 1212.09C346.071 1210.36 346.696 1208.88 347.946 1207.62C349.217 1206.35 350.738 1205.72 352.509 1205.72C354.238 1205.72 355.748 1206.35 357.04 1207.62C358.332 1208.88 358.977 1210.36 358.977 1212.09C358.977 1213.86 358.332 1215.36 357.04 1216.59C355.748 1217.82 354.238 1218.44 352.509 1218.44C350.738 1218.44 349.217 1217.82 347.946 1216.59C346.696 1215.36 346.071 1213.86 346.071 1212.09ZM377.108 1231.19V1228.09H402.733V1231.19H377.108ZM378.701 1208.78V1205.81H401.014V1208.78H378.701ZM383.514 1218.53C383.514 1216.8 384.139 1215.31 385.389 1214.06C386.66 1212.79 388.18 1212.16 389.951 1212.16C391.68 1212.16 393.191 1212.79 394.483 1214.06C395.774 1215.31 396.42 1216.8 396.42 1218.53C396.42 1220.3 395.774 1221.8 394.483 1223.03C393.191 1224.26 391.68 1224.88 389.951 1224.88C388.18 1224.88 386.66 1224.26 385.389 1223.03C384.139 1221.8 383.514 1220.3 383.514 1218.53ZM409.487 1231.69L407.487 1229.56L431.987 1205.31L434.112 1207.31L409.487 1231.69ZM407.831 1212.09C407.831 1210.36 408.456 1208.88 409.706 1207.62C410.977 1206.35 412.498 1205.72 414.269 1205.72C415.998 1205.72 417.508 1206.35 418.8 1207.62C420.092 1208.88 420.737 1210.36 420.737 1212.09C420.737 1213.86 420.092 1215.36 418.8 1216.59C417.508 1217.82 415.998 1218.44 414.269 1218.44C412.498 1218.44 410.977 1217.82 409.706 1216.59C408.456 1215.36 407.831 1213.86 407.831 1212.09ZM445.242 1218.53C445.242 1216.8 445.867 1215.31 447.117 1214.06C448.388 1212.79 449.909 1212.16 451.68 1212.16C453.409 1212.16 454.92 1212.79 456.211 1214.06C457.503 1215.31 458.149 1216.8 458.149 1218.53C458.149 1220.3 457.503 1221.8 456.211 1223.03C454.92 1224.26 453.409 1224.88 451.68 1224.88C449.909 1224.88 448.388 1224.26 447.117 1223.03C445.867 1221.8 445.242 1220.3 445.242 1218.53ZM497.435 1227.38C497.435 1228.31 497.747 1229.1 498.372 1229.75C498.997 1230.4 499.779 1230.72 500.716 1230.72C501.612 1230.72 502.383 1230.4 503.029 1229.75C503.695 1229.1 504.029 1228.31 504.029 1227.38C504.029 1226.48 503.695 1225.71 503.029 1225.06C502.383 1224.4 501.612 1224.06 500.716 1224.06C499.779 1224.06 498.997 1224.4 498.372 1225.06C497.747 1225.71 497.435 1226.48 497.435 1227.38ZM494.341 1206.12L496.904 1207.41L485.622 1228.12H495.372V1231.25H469.747V1228.12H479.372L469.122 1207.41L471.591 1206.12L482.622 1227.75L494.341 1206.12ZM515.003 1218.53C515.003 1216.8 515.628 1215.31 516.878 1214.06C518.148 1212.79 519.669 1212.16 521.44 1212.16C523.169 1212.16 524.68 1212.79 525.971 1214.06C527.263 1215.31 527.909 1216.8 527.909 1218.53C527.909 1220.3 527.263 1221.8 525.971 1223.03C524.68 1224.26 523.169 1224.88 521.44 1224.88C519.669 1224.88 518.148 1224.26 516.878 1223.03C515.628 1221.8 515.003 1220.3 515.003 1218.53ZM539.539 1216.91V1213.75H565.101V1216.88L539.539 1216.91ZM539.539 1208.91V1205.75H565.101V1208.88L539.539 1208.91ZM545.914 1224.91C545.914 1223.18 546.539 1221.69 547.789 1220.44C549.06 1219.17 550.58 1218.53 552.351 1218.53C554.08 1218.53 555.591 1219.17 556.883 1220.44C558.174 1221.69 558.82 1223.18 558.82 1224.91C558.82 1226.68 558.174 1228.18 556.883 1229.41C555.591 1230.64 554.08 1231.25 552.351 1231.25C550.58 1231.25 549.06 1230.64 547.789 1229.41C546.539 1228.18 545.914 1226.68 545.914 1224.91ZM589.638 1212.31C589.638 1214.1 589.117 1215.65 588.075 1216.94C587.054 1218.23 585.981 1218.86 584.856 1218.84V1231.31H581.825V1218.84C580.638 1218.82 579.492 1218.18 578.388 1216.91C577.304 1215.64 576.763 1214.1 576.763 1212.31C576.763 1210.48 577.408 1208.94 578.7 1207.69C579.992 1206.42 581.492 1205.78 583.2 1205.78C585.054 1205.78 586.585 1206.42 587.794 1207.69C589.023 1208.94 589.638 1210.48 589.638 1212.31ZM587.013 1212.34C587.013 1211.24 586.658 1210.31 585.95 1209.56C585.263 1208.81 584.377 1208.44 583.294 1208.44C582.273 1208.44 581.398 1208.81 580.669 1209.56C579.96 1210.31 579.606 1211.24 579.606 1212.34C579.606 1213.41 579.96 1214.32 580.669 1215.09C581.398 1215.84 582.273 1216.22 583.294 1216.22C584.377 1216.22 585.263 1215.84 585.95 1215.09C586.658 1214.32 587.013 1213.41 587.013 1212.34ZM602.892 1231.38V1211.38C604.476 1206.46 608.236 1203.92 614.174 1203.75C619.465 1203.92 623.163 1206.46 625.267 1211.38V1231.31H622.142V1213.12C621.101 1209.17 618.434 1207.19 614.142 1207.19C609.747 1207.19 607.08 1209.17 606.142 1213.12V1231.38H602.892ZM631.148 1207.28H651.179C656.095 1208.86 658.637 1212.64 658.804 1218.59C658.637 1223.89 656.095 1227.58 651.179 1229.69H631.21V1226.56H649.429C653.387 1225.52 655.366 1222.85 655.366 1218.56C655.366 1214.15 653.387 1211.47 649.429 1210.53H631.148V1207.28ZM687.184 1206.12L689.746 1207.41L678.465 1228.12H688.215V1231.25H662.59V1228.12H672.215L661.965 1207.41L664.434 1206.12L675.465 1227.75L687.184 1206.12ZM695.595 1231.31V1228.22L710.314 1228.12C712.23 1228.17 713.73 1227.53 714.814 1226.22C715.897 1224.91 716.439 1223.38 716.439 1221.62L716.407 1207.41H719.501V1221.72C719.501 1224.18 718.668 1226.36 717.001 1228.28C715.335 1230.2 713.105 1231.19 710.314 1231.25L695.595 1231.31ZM693.939 1213.88C693.939 1211.65 694.689 1209.72 696.189 1208.09C697.71 1206.45 699.585 1205.62 701.814 1205.62C703.939 1205.62 705.793 1206.45 707.376 1208.09C708.98 1209.72 709.782 1211.65 709.782 1213.88C709.782 1216.1 708.98 1218.02 707.376 1219.62C705.793 1221.21 703.939 1222 701.814 1222C699.585 1222 697.71 1221.21 696.189 1219.62C694.689 1218.02 693.939 1216.1 693.939 1213.88ZM696.689 1213.81C696.689 1215.31 697.168 1216.58 698.126 1217.62C699.085 1218.65 700.293 1219.16 701.751 1219.16C703.147 1219.16 704.335 1218.65 705.314 1217.62C706.314 1216.58 706.814 1215.31 706.814 1213.81C706.814 1212.35 706.314 1211.1 705.314 1210.06C704.335 1209 703.147 1208.47 701.751 1208.47C700.293 1208.47 699.085 1209 698.126 1210.06C697.168 1211.1 696.689 1212.35 696.689 1213.81ZM726.412 1231.38V1211.38C727.996 1206.46 731.756 1203.92 737.694 1203.75C742.985 1203.92 746.683 1206.46 748.787 1211.38V1231.31H745.662V1213.12C744.621 1209.17 741.954 1207.19 737.662 1207.19C733.267 1207.19 730.6 1209.17 729.662 1213.12V1231.38H726.412ZM781.636 1227.38C781.636 1226.48 781.949 1225.71 782.574 1225.06C783.199 1224.4 783.98 1224.06 784.917 1224.06C785.813 1224.06 786.584 1224.4 787.23 1225.06C787.897 1225.71 788.23 1226.48 788.23 1227.38C788.23 1228.31 787.897 1229.1 787.23 1229.75C786.584 1230.4 785.813 1230.72 784.917 1230.72C783.98 1230.72 783.199 1230.4 782.574 1229.75C781.949 1229.1 781.636 1228.31 781.636 1227.38ZM756.761 1208.91V1205.81H782.73V1208.91H756.761ZM782.73 1210.62L769.73 1233.5L756.761 1210.62H782.73ZM761.261 1213.5L769.73 1227.78L778.199 1213.56L761.261 1213.5ZM793.985 1205.75H802.735C805.568 1206.79 807.485 1208.12 808.485 1209.75L820.735 1230L818.235 1231.88L810.36 1218.78C810.193 1224.72 807.652 1228.88 802.735 1231.25H793.985V1228.09L801.86 1228.12C805.235 1226.67 806.985 1223.5 807.11 1218.62C806.985 1213.6 805.235 1210.35 801.86 1208.88H793.985V1205.75ZM824.271 1208.88C824.271 1207.98 824.584 1207.21 825.209 1206.56C825.834 1205.9 826.615 1205.56 827.552 1205.56C828.448 1205.56 829.219 1205.9 829.865 1206.56C830.532 1207.21 830.865 1207.98 830.865 1208.88C830.865 1209.81 830.532 1210.6 829.865 1211.25C829.219 1211.9 828.448 1212.22 827.552 1212.22C826.615 1212.22 825.834 1211.9 825.209 1211.25C824.584 1210.6 824.271 1209.81 824.271 1208.88ZM825.584 1208.91C825.584 1209.47 825.771 1209.95 826.146 1210.34C826.521 1210.72 826.99 1210.91 827.552 1210.91C828.073 1210.91 828.532 1210.72 828.927 1210.34C829.323 1209.95 829.521 1209.47 829.521 1208.91C829.521 1208.36 829.323 1207.9 828.927 1207.5C828.532 1207.1 828.073 1206.91 827.552 1206.91C826.99 1206.91 826.521 1207.1 826.146 1207.5C825.771 1207.9 825.584 1208.36 825.584 1208.91ZM106.188 1287.28H126.219C131.135 1288.86 133.677 1292.64 133.844 1298.59C133.677 1303.89 131.135 1307.58 126.219 1309.69H106.25V1306.56H124.469C128.427 1305.52 130.406 1302.85 130.406 1298.56C130.406 1294.15 128.427 1291.47 124.469 1290.53H106.188V1287.28ZM139.567 1311.69L137.567 1309.56L162.067 1285.31L164.192 1287.31L139.567 1311.69ZM137.911 1292.09C137.911 1290.36 138.536 1288.88 139.786 1287.62C141.057 1286.35 142.578 1285.72 144.349 1285.72C146.078 1285.72 147.588 1286.35 148.88 1287.62C150.172 1288.88 150.817 1290.36 150.817 1292.09C150.817 1293.86 150.172 1295.36 148.88 1296.59C147.588 1297.82 146.078 1298.44 144.349 1298.44C142.578 1298.44 141.057 1297.82 139.786 1296.59C138.536 1295.36 137.911 1293.86 137.911 1292.09ZM168.979 1296.91V1293.75H194.541V1296.88L168.979 1296.91ZM168.979 1288.91V1285.75H194.541V1288.88L168.979 1288.91ZM175.354 1304.91C175.354 1303.18 175.979 1301.69 177.229 1300.44C178.5 1299.17 180.02 1298.53 181.791 1298.53C183.52 1298.53 185.031 1299.17 186.322 1300.44C187.614 1301.69 188.26 1303.18 188.26 1304.91C188.26 1306.68 187.614 1308.18 186.322 1309.41C185.031 1310.64 183.52 1311.25 181.791 1311.25C180.02 1311.25 178.5 1310.64 177.229 1309.41C175.979 1308.18 175.354 1306.68 175.354 1304.91ZM207.796 1298.5V1285.56H210.89V1298.5H207.796ZM214.202 1298.5V1285.56H217.421V1298.5H214.202ZM223.859 1285.56V1305.53C222.275 1310.43 218.505 1312.96 212.546 1313.12C207.255 1312.96 203.557 1310.43 201.452 1305.53V1285.56H204.577V1303.78C205.619 1307.74 208.286 1309.72 212.577 1309.72C216.994 1309.72 219.671 1307.74 220.609 1303.78V1285.56H223.859ZM230.739 1296.91V1293.75H256.301V1296.88L230.739 1296.91ZM230.739 1288.91V1285.75H256.301V1288.88L230.739 1288.91ZM237.114 1304.91C237.114 1303.18 237.739 1301.69 238.989 1300.44C240.26 1299.17 241.78 1298.53 243.551 1298.53C245.28 1298.53 246.791 1299.17 248.082 1300.44C249.374 1301.69 250.02 1303.18 250.02 1304.91C250.02 1306.68 249.374 1308.18 248.082 1309.41C246.791 1310.64 245.28 1311.25 243.551 1311.25C241.78 1311.25 240.26 1310.64 238.989 1309.41C237.739 1308.18 237.114 1306.68 237.114 1304.91ZM275.869 1304.75C275.285 1309.21 272.89 1311.38 268.681 1311.25C264.66 1311.31 262.317 1309.15 261.65 1304.75L261.619 1285.75H264.744V1303.25C264.931 1306.54 266.244 1308.19 268.681 1308.19C271.41 1308.27 272.806 1306.62 272.869 1303.25L272.775 1292.22C273.171 1287.76 275.619 1285.58 280.119 1285.69C284.14 1285.69 286.494 1287.84 287.181 1292.16V1311.34L284.056 1311.41L284.119 1293.72C283.869 1290.43 282.525 1288.77 280.087 1288.75C277.233 1288.65 275.827 1290.23 275.869 1293.5V1304.75ZM306.936 1311.25H303.686L303.655 1298.72L292.499 1285.75H318.092L306.936 1298.72V1307.25L313.311 1300.12H316.561L306.936 1311.25ZM311.811 1288.62H299.03L305.28 1296.06L311.811 1288.62ZM323.348 1311.31V1308.12H334.598V1285.75H337.848V1308.12H348.973V1311.31H323.348ZM368.509 1304.75C367.925 1309.21 365.53 1311.38 361.321 1311.25C357.3 1311.31 354.957 1309.15 354.29 1304.75L354.259 1285.75H357.384V1303.25C357.571 1306.54 358.884 1308.19 361.321 1308.19C364.05 1308.27 365.446 1306.62 365.509 1303.25L365.415 1292.22C365.811 1287.76 368.259 1285.58 372.759 1285.69C376.78 1285.69 379.134 1287.84 379.821 1292.16V1311.34L376.696 1311.41L376.759 1293.72C376.509 1290.43 375.165 1288.77 372.727 1288.75C369.873 1288.65 368.467 1290.23 368.509 1293.5V1304.75ZM391.483 1298.53C391.483 1296.8 392.108 1295.31 393.358 1294.06C394.628 1292.79 396.149 1292.16 397.92 1292.16C399.649 1292.16 401.16 1292.79 402.451 1294.06C403.743 1295.31 404.389 1296.8 404.389 1298.53C404.389 1300.3 403.743 1301.8 402.451 1303.03C401.16 1304.26 399.649 1304.88 397.92 1304.88C396.149 1304.88 394.628 1304.26 393.358 1303.03C392.108 1301.8 391.483 1300.3 391.483 1298.53ZM430.93 1311.31V1308.09H453.336V1285.81H456.43V1311.31H430.93ZM468.122 1298.53C468.122 1296.8 468.747 1295.31 469.997 1294.06C471.268 1292.79 472.789 1292.16 474.56 1292.16C476.289 1292.16 477.8 1292.79 479.091 1294.06C480.383 1295.31 481.029 1296.8 481.029 1298.53C481.029 1300.3 480.383 1301.8 479.091 1303.03C477.8 1304.26 476.289 1304.88 474.56 1304.88C472.789 1304.88 471.268 1304.26 469.997 1303.03C468.747 1301.8 468.122 1300.3 468.122 1298.53ZM503.69 1312.88V1300.12H490.94L506.94 1283.62V1296.88H519.94L503.69 1312.88ZM512.94 1300.12H506.94V1306.12L512.94 1300.12ZM503.69 1296.88V1290.88L497.69 1296.88H503.69ZM525.008 1311.69L523.008 1309.56L547.508 1285.31L549.633 1287.31L525.008 1311.69ZM523.351 1292.09C523.351 1290.36 523.976 1288.88 525.226 1287.62C526.497 1286.35 528.018 1285.72 529.789 1285.72C531.518 1285.72 533.028 1286.35 534.32 1287.62C535.612 1288.88 536.258 1290.36 536.258 1292.09C536.258 1293.86 535.612 1295.36 534.32 1296.59C533.028 1297.82 531.518 1298.44 529.789 1298.44C528.018 1298.44 526.497 1297.82 525.226 1296.59C523.976 1295.36 523.351 1293.86 523.351 1292.09ZM553.825 1285.75H562.575C565.408 1286.79 567.325 1288.12 568.325 1289.75L580.575 1310L578.075 1311.88L570.2 1298.78C570.033 1304.72 567.492 1308.88 562.575 1311.25H553.825V1308.09L561.7 1308.12C565.075 1306.67 566.825 1303.5 566.95 1298.62C566.825 1293.6 565.075 1290.35 561.7 1288.88H553.825V1285.75ZM612.955 1307.38C612.955 1308.31 613.267 1309.1 613.892 1309.75C614.517 1310.4 615.299 1310.72 616.236 1310.72C617.132 1310.72 617.903 1310.4 618.549 1309.75C619.215 1309.1 619.549 1308.31 619.549 1307.38C619.549 1306.48 619.215 1305.71 618.549 1305.06C617.903 1304.4 617.132 1304.06 616.236 1304.06C615.299 1304.06 614.517 1304.4 613.892 1305.06C613.267 1305.71 612.955 1306.48 612.955 1307.38ZM609.861 1286.12L612.424 1287.41L601.142 1308.12H610.892V1311.25H585.267V1308.12H594.892L584.642 1287.41L587.111 1286.12L598.142 1307.75L609.861 1286.12ZM624.21 1311.31V1308.22H635.398V1288.91H624.21V1285.81H649.71V1288.91H638.523V1308.22H649.71V1311.31H624.21ZM669.09 1285.75V1294.5L679.09 1285L680.84 1287.62L669.59 1298L680.84 1309.25L679.09 1312L669.09 1301.56V1304.75C668.09 1309.21 665.694 1311.38 661.903 1311.25C657.882 1311.31 655.538 1309.15 654.871 1304.75L654.84 1285.75H657.965V1303.25C658.153 1306.54 659.465 1308.19 661.903 1308.19C664.382 1308.19 665.778 1306.54 666.09 1303.25V1285.75H669.09ZM713.282 1307.38C713.282 1306.48 713.595 1305.71 714.22 1305.06C714.845 1304.4 715.626 1304.06 716.564 1304.06C717.46 1304.06 718.23 1304.4 718.876 1305.06C719.543 1305.71 719.876 1306.48 719.876 1307.38C719.876 1308.31 719.543 1309.1 718.876 1309.75C718.23 1310.4 717.46 1310.72 716.564 1310.72C715.626 1310.72 714.845 1310.4 714.22 1309.75C713.595 1309.1 713.282 1308.31 713.282 1307.38ZM685.595 1311.31V1308.12H696.845V1285.75H700.095V1308.12H711.22V1311.31H685.595ZM732.756 1298.5V1285.56H735.85V1298.5H732.756ZM739.162 1298.5V1285.56H742.381V1298.5H739.162ZM748.819 1285.56V1305.53C747.235 1310.43 743.465 1312.96 737.506 1313.12C732.215 1312.96 728.517 1310.43 726.412 1305.53V1285.56H729.537V1303.78C730.579 1307.74 733.246 1309.72 737.537 1309.72C741.954 1309.72 744.631 1307.74 745.569 1303.78V1285.56H748.819ZM769.949 1304.75C769.365 1309.21 766.97 1311.38 762.761 1311.25C758.74 1311.31 756.397 1309.15 755.73 1304.75L755.699 1285.75H758.824V1303.25C759.011 1306.54 760.324 1308.19 762.761 1308.19C765.49 1308.27 766.886 1306.62 766.949 1303.25L766.855 1292.22C767.251 1287.76 769.699 1285.58 774.199 1285.69C778.22 1285.69 780.574 1287.84 781.261 1292.16V1311.34L778.136 1311.41L778.199 1293.72C777.949 1290.43 776.605 1288.77 774.167 1288.75C771.313 1288.65 769.907 1290.23 769.949 1293.5V1304.75ZM801.016 1311.25H797.766L797.735 1298.72L786.579 1285.75H812.172L801.016 1298.72V1307.25L807.391 1300.12H810.641L801.016 1311.25ZM805.891 1288.62H793.11L799.36 1296.06L805.891 1288.62ZM842.584 1285.75V1304.75C841.584 1309.21 839.188 1311.38 835.396 1311.25C831.375 1311.31 829.032 1309.15 828.365 1304.75L828.334 1285.75H831.459V1303.25C831.646 1306.54 832.959 1308.19 835.396 1308.19C837.875 1308.19 839.271 1306.54 839.584 1303.25V1285.75H842.584ZM825.084 1285.75V1304.75C824.084 1309.21 821.688 1311.38 817.896 1311.25V1308.19C820.375 1308.19 821.771 1306.54 822.084 1303.25V1285.75H825.084ZM116.75 1383.34C116.75 1381.16 117.521 1379.27 119.062 1377.69C120.625 1376.1 122.542 1375.31 124.812 1375.31C126.229 1375.31 127.312 1375.5 128.062 1375.88V1368.88H110.438V1386.5H107.188V1365.75H131.188V1378.25C132.229 1379.46 132.792 1381.16 132.875 1383.34C132.875 1385.74 132.073 1387.68 130.469 1389.16C128.865 1390.64 126.979 1391.38 124.812 1391.38C122.542 1391.38 120.625 1390.59 119.062 1389.03C117.521 1387.47 116.75 1385.57 116.75 1383.34ZM119.562 1383.5C119.562 1384.94 120.062 1386.16 121.062 1387.16C122.083 1388.14 123.323 1388.62 124.781 1388.62C126.219 1388.62 127.438 1388.14 128.438 1387.16C129.438 1386.16 129.938 1384.94 129.938 1383.5C130.021 1382.1 129.583 1380.9 128.625 1379.88C127.667 1378.83 126.385 1378.31 124.781 1378.31C123.323 1378.31 122.083 1378.83 121.062 1379.88C120.062 1380.9 119.562 1382.1 119.562 1383.5ZM141.161 1378.5C141.161 1375.92 142.047 1373.71 143.817 1371.88C145.609 1370.04 147.463 1369.11 149.38 1369.09V1365.75H152.38V1369.16C154.276 1369.14 156.109 1370.04 157.88 1371.88C159.672 1373.71 160.588 1375.92 160.63 1378.5C160.63 1381.17 159.724 1383.42 157.911 1385.25C156.099 1387.08 154.255 1387.98 152.38 1387.94V1391.25H149.38V1387.94C147.463 1387.98 145.609 1387.08 143.817 1385.25C142.047 1383.42 141.161 1381.17 141.161 1378.5ZM152.38 1384.75C153.755 1384.83 154.942 1384.32 155.942 1383.22C156.942 1382.09 157.505 1380.48 157.63 1378.38C157.588 1376.58 156.963 1375.08 155.755 1373.88C154.567 1372.67 153.442 1372.12 152.38 1372.25V1384.75ZM144.005 1378.5C144.005 1380.48 144.515 1382.04 145.536 1383.19C146.557 1384.31 147.838 1384.83 149.38 1384.75V1372.25C148.067 1372.15 146.838 1372.67 145.692 1373.81C144.567 1374.96 144.005 1376.52 144.005 1378.5ZM169.01 1391.31V1388.22H180.197V1368.91H169.01V1365.81H194.51V1368.91H183.322V1388.22H194.51V1391.31H169.01ZM223.984 1365L226.546 1366.28L212.64 1392.19L198.765 1366.28L201.234 1365L206.296 1374.97H218.921L223.984 1365ZM212.64 1386.06L216.421 1378.62H208.796L212.64 1386.06ZM233.864 1391.25H230.739L235.614 1383.25H238.739L233.864 1391.25ZM253.207 1391.25L248.395 1383.25H251.489L256.301 1391.25H253.207ZM237.207 1373.91C237.207 1372.18 237.832 1370.69 239.082 1369.44C240.353 1368.17 241.874 1367.53 243.645 1367.53C245.374 1367.53 246.885 1368.17 248.176 1369.44C249.468 1370.69 250.114 1372.18 250.114 1373.91C250.114 1375.68 249.468 1377.18 248.176 1378.41C246.885 1379.64 245.374 1380.25 243.645 1380.25C241.874 1380.25 240.353 1379.64 239.082 1378.41C237.832 1377.18 237.207 1375.68 237.207 1373.91ZM261.65 1391.31V1388.22L276.056 1388.12L261.65 1378.5L276.056 1368.88L261.65 1368.91V1365.81H287.15L267.212 1378.5L287.025 1391.31H261.65ZM303.53 1392.88V1380.12H290.78L306.78 1363.62V1376.88H319.78L303.53 1392.88ZM312.78 1380.12H306.78V1386.12L312.78 1380.12ZM303.53 1376.88V1370.88L297.53 1376.88H303.53ZM324.848 1391.69L322.848 1389.56L347.348 1365.31L349.473 1367.31L324.848 1391.69ZM323.191 1372.09C323.191 1370.36 323.816 1368.88 325.066 1367.62C326.337 1366.35 327.858 1365.72 329.629 1365.72C331.358 1365.72 332.868 1366.35 334.16 1367.62C335.452 1368.88 336.098 1370.36 336.098 1372.09C336.098 1373.86 335.452 1375.36 334.16 1376.59C332.868 1377.82 331.358 1378.44 329.629 1378.44C327.858 1378.44 326.337 1377.82 325.066 1376.59C323.816 1375.36 323.191 1373.86 323.191 1372.09ZM381.915 1387.38C381.915 1388.31 382.227 1389.1 382.852 1389.75C383.477 1390.4 384.259 1390.72 385.196 1390.72C386.092 1390.72 386.863 1390.4 387.509 1389.75C388.175 1389.1 388.509 1388.31 388.509 1387.38C388.509 1386.48 388.175 1385.71 387.509 1385.06C386.863 1384.4 386.092 1384.06 385.196 1384.06C384.259 1384.06 383.477 1384.4 382.852 1385.06C382.227 1385.71 381.915 1386.48 381.915 1387.38ZM378.821 1366.12L381.384 1367.41L370.102 1388.12H379.852V1391.25H354.227V1388.12H363.852L353.602 1367.41L356.071 1366.12L367.102 1387.75L378.821 1366.12ZM432.144 1366.12L434.706 1367.41L423.425 1388.12H433.175V1391.25H407.55V1388.12H417.175L406.925 1367.41L409.394 1366.12L420.425 1387.75L432.144 1366.12ZM438.992 1384L444.43 1378.47L438.992 1372.62L440.867 1370.62L446.93 1376.94L456.649 1377L462.117 1370.62L464.367 1372.62L459.055 1378.47L464.367 1384.12L462.117 1386.38L456.492 1380.12L446.93 1380.06L440.867 1386.38L438.992 1384ZM494.716 1387.38C494.716 1386.48 495.029 1385.71 495.654 1385.06C496.279 1384.4 497.06 1384.06 497.997 1384.06C498.893 1384.06 499.664 1384.4 500.31 1385.06C500.977 1385.71 501.31 1386.48 501.31 1387.38C501.31 1388.31 500.977 1389.1 500.31 1389.75C499.664 1390.4 498.893 1390.72 497.997 1390.72C497.06 1390.72 496.279 1390.4 495.654 1389.75C495.029 1389.1 494.716 1388.31 494.716 1387.38ZM471.841 1378.5C471.841 1375.83 472.727 1373.62 474.497 1371.88C476.289 1370.12 478.143 1369.2 480.06 1369.09V1365.75H483.06V1369.16C485.039 1369.22 486.893 1370.12 488.622 1371.88C490.372 1373.62 491.268 1375.83 491.31 1378.5C491.31 1381.17 490.404 1383.42 488.591 1385.25C486.779 1387.08 484.935 1387.98 483.06 1387.94V1391.25H480.06V1387.94C478.143 1387.98 476.289 1387.08 474.497 1385.25C472.727 1383.42 471.841 1381.17 471.841 1378.5ZM483.06 1384.75C484.435 1384.83 485.643 1384.32 486.685 1383.22C487.727 1382.09 488.268 1380.48 488.31 1378.38C488.268 1376.58 487.643 1375.08 486.435 1373.88C485.247 1372.67 484.122 1372.12 483.06 1372.25V1384.75ZM474.685 1378.5C474.602 1380.48 475.091 1382.04 476.154 1383.19C477.216 1384.31 478.518 1384.83 480.06 1384.75V1372.25C478.747 1372.15 477.518 1372.67 476.372 1373.81C475.247 1374.96 474.685 1376.52 474.685 1378.5ZM510.315 1391.31V1388.22L525.034 1388.12C526.95 1388.17 528.45 1387.53 529.534 1386.22C530.617 1384.91 531.159 1383.38 531.159 1381.62L531.128 1367.41H534.221V1381.72C534.221 1384.18 533.388 1386.36 531.721 1388.28C530.055 1390.2 527.825 1391.19 525.034 1391.25L510.315 1391.31ZM508.659 1373.88C508.659 1371.65 509.409 1369.72 510.909 1368.09C512.43 1366.45 514.305 1365.62 516.534 1365.62C518.659 1365.62 520.513 1366.45 522.096 1368.09C523.7 1369.72 524.503 1371.65 524.503 1373.88C524.503 1376.1 523.7 1378.02 522.096 1379.62C520.513 1381.21 518.659 1382 516.534 1382C514.305 1382 512.43 1381.21 510.909 1379.62C509.409 1378.02 508.659 1376.1 508.659 1373.88ZM511.409 1373.81C511.409 1375.31 511.888 1376.58 512.846 1377.62C513.805 1378.65 515.013 1379.16 516.471 1379.16C517.867 1379.16 519.055 1378.65 520.034 1377.62C521.034 1376.58 521.534 1375.31 521.534 1373.81C521.534 1372.35 521.034 1371.1 520.034 1370.06C519.055 1369 517.867 1368.47 516.471 1368.47C515.013 1368.47 513.805 1369 512.846 1370.06C511.888 1371.1 511.409 1372.35 511.409 1373.81ZM553.789 1384.75C553.205 1389.21 550.81 1391.38 546.601 1391.25C542.58 1391.31 540.237 1389.15 539.57 1384.75L539.539 1365.75H542.664V1383.25C542.851 1386.54 544.164 1388.19 546.601 1388.19C549.33 1388.27 550.726 1386.62 550.789 1383.25L550.695 1372.22C551.091 1367.76 553.539 1365.58 558.039 1365.69C562.06 1365.69 564.414 1367.84 565.101 1372.16V1391.34L561.976 1391.41L562.039 1373.72C561.789 1370.43 560.445 1368.77 558.008 1368.75C555.153 1368.65 553.747 1370.23 553.789 1373.5V1384.75ZM576.763 1378.53C576.763 1376.8 577.388 1375.31 578.638 1374.06C579.908 1372.79 581.429 1372.16 583.2 1372.16C584.929 1372.16 586.44 1372.79 587.731 1374.06C589.023 1375.31 589.669 1376.8 589.669 1378.53C589.669 1380.3 589.023 1381.8 587.731 1383.03C586.44 1384.26 584.929 1384.88 583.2 1384.88C581.429 1384.88 579.908 1384.26 578.638 1383.03C577.388 1381.8 576.763 1380.3 576.763 1378.53ZM601.33 1391.31V1388.22H612.517V1368.91H601.33V1365.81H626.83V1368.91H615.642V1388.22H626.83V1391.31H601.33ZM636.741 1379.66V1370.59H638.898V1379.66H636.741ZM641.241 1379.66V1370.59H643.491V1379.66H641.241ZM647.991 1370.59V1384.56C646.887 1388 644.241 1389.77 640.054 1389.88C636.366 1389.77 633.783 1388 632.304 1384.56V1370.59H634.491V1383.34C635.22 1386.11 637.085 1387.5 640.085 1387.5C643.189 1387.5 645.064 1386.11 645.71 1383.34V1370.59H647.991ZM662.965 1383.34C662.965 1381.16 663.736 1379.27 665.278 1377.69C666.84 1376.1 668.757 1375.31 671.028 1375.31C672.444 1375.31 673.528 1375.5 674.278 1375.88V1368.88H656.653V1386.5H653.403V1365.75H677.403V1378.25C678.444 1379.46 679.007 1381.16 679.09 1383.34C679.09 1385.74 678.288 1387.68 676.684 1389.16C675.08 1390.64 673.194 1391.38 671.028 1391.38C668.757 1391.38 666.84 1390.59 665.278 1389.03C663.736 1387.47 662.965 1385.57 662.965 1383.34ZM665.778 1383.5C665.778 1384.94 666.278 1386.16 667.278 1387.16C668.298 1388.14 669.538 1388.62 670.996 1388.62C672.434 1388.62 673.653 1388.14 674.653 1387.16C675.653 1386.16 676.153 1384.94 676.153 1383.5C676.236 1382.1 675.798 1380.9 674.84 1379.88C673.882 1378.83 672.6 1378.31 670.996 1378.31C669.538 1378.31 668.298 1378.83 667.278 1379.88C666.278 1380.9 665.778 1382.1 665.778 1383.5ZM685.907 1391.38V1371.38C687.491 1366.46 691.251 1363.92 697.189 1363.75C702.48 1363.92 706.178 1366.46 708.282 1371.38V1391.31H705.157V1373.12C704.116 1369.17 701.449 1367.19 697.157 1367.19C692.762 1367.19 690.095 1369.17 689.157 1373.12V1391.38H685.907ZM715.225 1391.31V1388.22H726.412V1368.91H715.225V1365.81H740.725V1368.91H729.537V1388.22H740.725V1391.31H715.225ZM772.011 1387.38C772.011 1386.48 772.324 1385.71 772.949 1385.06C773.574 1384.4 774.355 1384.06 775.292 1384.06C776.188 1384.06 776.959 1384.4 777.605 1385.06C778.272 1385.71 778.605 1386.48 778.605 1387.38C778.605 1388.31 778.272 1389.1 777.605 1389.75C776.959 1390.4 776.188 1390.72 775.292 1390.72C774.355 1390.72 773.574 1390.4 772.949 1389.75C772.324 1389.1 772.011 1388.31 772.011 1387.38ZM747.136 1368.91V1365.81H773.105V1368.91H747.136ZM773.105 1370.62L760.105 1393.5L747.136 1370.62H773.105ZM751.636 1373.5L760.105 1387.78L768.574 1373.56L751.636 1373.5ZM792.829 1378.53C792.829 1376.8 793.454 1375.31 794.704 1374.06C795.975 1372.79 797.495 1372.16 799.266 1372.16C800.995 1372.16 802.506 1372.79 803.797 1374.06C805.089 1375.31 805.735 1376.8 805.735 1378.53C805.735 1380.3 805.089 1381.8 803.797 1383.03C802.506 1384.26 800.995 1384.88 799.266 1384.88C797.495 1384.88 795.975 1384.26 794.704 1383.03C793.454 1381.8 792.829 1380.3 792.829 1378.53ZM789.735 1391.25V1365.75H792.86V1391.25H789.735ZM815.865 1391.31V1388.22L830.271 1388.12L815.865 1378.5L830.271 1368.88L815.865 1368.91V1365.81H841.365L821.427 1378.5L841.24 1391.31H815.865ZM857.745 1392.88V1380.12H844.995L860.995 1363.62V1376.88H873.995L857.745 1392.88ZM866.995 1380.12H860.995V1386.12L866.995 1380.12ZM857.745 1376.88V1370.88L851.745 1376.88H857.745ZM879.062 1391.69L877.062 1389.56L901.562 1365.31L903.688 1367.31L879.062 1391.69ZM877.406 1372.09C877.406 1370.36 878.031 1368.88 879.281 1367.62C880.552 1366.35 882.073 1365.72 883.844 1365.72C885.573 1365.72 887.083 1366.35 888.375 1367.62C889.667 1368.88 890.312 1370.36 890.312 1372.09C890.312 1373.86 889.667 1375.36 888.375 1376.59C887.083 1377.82 885.573 1378.44 883.844 1378.44C882.073 1378.44 880.552 1377.82 879.281 1376.59C878.031 1375.36 877.406 1373.86 877.406 1372.09ZM907.286 1368.88C907.286 1367.98 907.599 1367.21 908.224 1366.56C908.849 1365.9 909.63 1365.56 910.568 1365.56C911.463 1365.56 912.234 1365.9 912.88 1366.56C913.547 1367.21 913.88 1367.98 913.88 1368.88C913.88 1369.81 913.547 1370.6 912.88 1371.25C912.234 1371.9 911.463 1372.22 910.568 1372.22C909.63 1372.22 908.849 1371.9 908.224 1371.25C907.599 1370.6 907.286 1369.81 907.286 1368.88ZM908.599 1368.91C908.599 1369.47 908.786 1369.95 909.161 1370.34C909.536 1370.72 910.005 1370.91 910.568 1370.91C911.088 1370.91 911.547 1370.72 911.943 1370.34C912.338 1369.95 912.536 1369.47 912.536 1368.91C912.536 1368.36 912.338 1367.9 911.943 1367.5C911.547 1367.1 911.088 1366.91 910.568 1366.91C910.005 1366.91 909.536 1367.1 909.161 1367.5C908.786 1367.9 908.599 1368.36 908.599 1368.91Z" fill="black"/>
<line x1="117.75" y1="693" x2="117.75" y2="879" stroke="#4D4D4D" stroke-width="3.5"/>
<line x1="130.75" y1="693" x2="130.75" y2="879" stroke="#4D4D4D" stroke-width="3.5"/>
<line x1="143.75" y1="693" x2="143.75" y2="879" stroke="#4D4D4D" stroke-width="3.5"/>
<line x1="156.75" y1="693" x2="156.75" y2="879" stroke="#4D4D4D" stroke-width="3.5"/>
<line x1="169.75" y1="693" x2="169.75" y2="879" stroke="#4D4D4D" stroke-width="3.5"/>
<line x1="182.75" y1="693" x2="182.75" y2="859" stroke="#4D4D4D" stroke-width="3.5"/>
<line x1="195.75" y1="693" x2="195.75" y2="809" stroke="#4D4D4D" stroke-width="3.5"/>
<line x1="208.75" y1="693" x2="208.75" y2="776" stroke="#4D4D4D" stroke-width="3.5"/>
<line x1="221.75" y1="693" x2="221.75" y2="732" stroke="#4D4D4D" stroke-width="3.5"/>
<line x1="234.75" y1="693" x2="234.75" y2="716" stroke="#4D4D4D" stroke-width="3.5"/>
<g clip-path="url(#clip1_32_2)">
<mask id="mask0_32_2" style="mask-type:luminance" maskUnits="userSpaceOnUse" x="214" y="198" width="572" height="353">
<path d="M786 198H214V551H786V198Z" fill="white"/>
</mask>
<g mask="url(#mask0_32_2)">
<path d="M500 583L608.253 395.5H391.747L500 583Z" fill="#B12E38"/>
<path d="M500 211L608.253 398.5H391.747L500 211Z" fill="#B12E38"/>
<path d="M427 204.5H573" stroke="black" stroke-width="13"/>
<path d="M640 204.5H786" stroke="black" stroke-width="13"/>
<path d="M640 544.5H786" stroke="black" stroke-width="13"/>
<path d="M214 544.5H360" stroke="black" stroke-width="13"/>
<path d="M427 544.5H573" stroke="black" stroke-width="13"/>
<path d="M214 204.5H360" stroke="black" stroke-width="13"/>
<path d="M527.627 540.931L711.855 208.576" stroke="black" stroke-width="10"/>
<path d="M472.371 540.931L288.143 208.576" stroke="black" stroke-width="10"/>
<path d="M275.389 566.705L479.009 199.365" stroke="black" stroke-width="48"/>
<path d="M724.611 566.705L520.991 199.364" stroke="black" stroke-width="48"/>
</g>
</g>
</g>
<defs>
<clipPath id="clip0_32_2">
<rect width="1000" height="1512" fill="white"/>
</clipPath>
<clipPath id="clip1_32_2">
<rect width="572" height="353" fill="white" transform="translate(214 198)"/>
</clipPath>
</defs>
</svg>
